<mxfile host="app.diagrams.net" modified="2023-10-31T09:21:07.538Z" agent="Mozilla/5.0 (X11; Linux x86_64) AppleWebKit/537.36 (KHTML, like Gecko) Chrome/117.0.0.0 Safari/537.36" version="22.0.8" etag="-2uBVZLQ83onRlBvzsQ2" type="github">
  <diagram name="Page-1" id="axLC5w06N0vyT6WtrFh9">
    <mxGraphModel>
      <root>
        <mxCell id="0" />
        <mxCell id="1" parent="0" />
      </root>
    </mxGraphModel>
  </diagram>
</mxfile>
